<?xml version="1.0" standalone="no"?>
<!DOCTYPE svg PUBLIC "-//W3C//DTD SVG 20010904//EN"
 "http://www.w3.org/TR/2001/REC-SVG-20010904/DTD/svg10.dtd">
<svg version="1.0" xmlns="http://www.w3.org/2000/svg"
 width="1778.000000pt" height="933.000000pt" viewBox="0 0 1778.000000 933.000000"
 preserveAspectRatio="xMidYMid meet">
<metadata>
Created by potrace 1.15, written by Peter Selinger 2001-2017
</metadata>
<g transform="translate(0.000000,933.000000) scale(0.100000,-0.100000)"
fill="#000000" stroke="none">
<path d="M2102 9123 c-18 -9 -45 -32 -60 -51 l-27 -35 -2 -596 -3 -596 23 -40
c12 -22 40 -50 62 -62 l40 -23 1053 0 1052 0 0 -50 0 -50 -1051 0 -1051 0 -40
-22 c-23 -13 -51 -41 -64 -64 l-24 -42 2 -594 3 -595 28 -36 c60 -79 -89 -72
1610 -75 l1517 -2 0 415 0 415 545 0 545 0 0 465 0 465 -545 0 -545 0 0 135 0
135 645 0 645 0 0 460 0 460 -2162 0 c-1982 0 -2166 -2 -2196 -17z m1028 -268
c235 -35 427 -145 505 -287 27 -47 30 -62 30 -138 0 -105 -20 -148 -109 -235
-107 -105 -273 -172 -482 -196 -325 -37 -671 99 -773 303 -160 320 309 633
829 553z m45 -1530 c367 -70 578 -316 465 -543 -61 -122 -217 -228 -408 -279
-85 -23 -117 -26 -262 -26 -146 -1 -176 2 -261 25 -191 52 -351 159 -409 275
-37 73 -40 175 -7 246 109 239 503 374 882 302z"/>
<path d="M2640 8743 c0 -16 11 -147 25 -293 14 -146 25 -274 25 -285 0 -19 15
-24 142 -49 l142 -28 143 28 c125 25 144 31 148 49 2 11 13 130 25 265 12 135
24 266 27 293 l6 47 -342 0 -341 0 0 -27z m542 -118 l-4 -25 -180 0 -181 0 7
-37 c3 -21 6 -55 6 -75 l0 -38 166 0 167 0 -6 -67 c-4 -38 -7 -82 -7 -99 l0
-32 -89 -17 c-82 -16 -94 -16 -167 -1 -43 9 -78 17 -79 19 -1 1 -5 21 -8 45
-4 37 -3 42 14 42 14 0 19 -7 19 -29 0 -28 2 -30 69 -42 55 -9 82 -9 133 1 35
6 66 17 70 23 4 7 8 36 8 65 l0 52 -164 0 -164 0 -6 78 c-4 42 -9 96 -13 120
l-5 42 209 0 210 0 -5 -25z"/>
<path d="M2650 7193 c0 -51 48 -565 53 -570 2 -2 65 -16 140 -30 l136 -27 93
18 c51 9 114 22 139 27 l45 10 23 252 c12 139 25 276 28 305 l6 52 -332 0
-331 0 0 -37z m528 -95 c-2 -18 -32 -38 -138 -93 l-135 -70 133 -3 133 -3 -7
-92 c-3 -51 -10 -99 -14 -107 -5 -10 -40 -22 -92 -32 -78 -15 -90 -15 -168 1
l-85 17 -5 47 c-6 44 -4 47 16 47 17 0 23 -7 26 -27 3 -25 9 -29 63 -41 48
-11 74 -11 131 -2 l72 12 6 46 c12 89 26 82 -154 82 -160 0 -160 0 -160 23 0
19 20 33 130 87 72 35 130 68 130 72 0 4 -63 8 -140 8 l-140 0 0 25 0 25 201
0 200 0 -3 -22z"/>
<path d="M6543 8178 c4 -1067 2 -1029 71 -1223 19 -54 53 -127 75 -164 182
-307 553 -509 1058 -577 173 -23 530 -23 702 0 416 56 695 176 906 390 144
145 229 302 276 512 22 98 23 109 26 1062 l4 962 -455 0 -456 0 0 -847 c0
-937 0 -938 -62 -1041 -67 -110 -210 -206 -373 -248 -98 -26 -332 -26 -430 0
-163 42 -306 138 -373 248 -62 103 -62 104 -62 1041 l0 847 -456 0 -455 0 4
-962z"/>
<path d="M9810 7665 l0 -1475 1120 0 1120 0 0 465 0 465 -655 0 -655 0 0 1010
0 1010 -465 0 -465 0 0 -1475z"/>
<path d="M12190 7665 l0 -1475 1115 0 1115 0 0 465 0 465 -655 0 -655 0 0
1010 0 1010 -460 0 -460 0 0 -1475z"/>
<path d="M2140 6108 c-52 -15 -86 -43 -109 -91 -21 -42 -21 -56 -21 -615 0
-379 4 -580 11 -599 14 -38 57 -83 96 -99 27 -12 225 -14 1150 -15 l1118 -1
44 -49 44 -49 -2054 0 -2054 0 -40 -23 c-22 -13 -49 -40 -62 -62 l-23 -40 0
-583 c0 -561 1 -584 20 -622 24 -47 63 -76 121 -89 57 -13 5261 -14 5406 -1
129 11 207 32 311 81 207 96 365 256 467 470 71 153 90 237 90 414 0 170 -16
241 -83 370 -45 86 -161 205 -248 255 -33 19 -255 107 -492 195 l-432 160 0
37 0 38 610 0 610 0 0 465 0 465 -2222 -1 c-1440 0 -2235 -4 -2258 -11z m1011
-284 c306 -52 521 -224 523 -418 2 -170 -171 -336 -423 -405 -372 -102 -820
25 -947 270 -39 74 -41 180 -5 254 40 81 135 167 243 219 87 41 216 80 298 89
88 10 225 6 311 -9z m-1831 -1514 c197 -24 363 -94 466 -195 80 -78 106 -130
112 -223 4 -66 2 -78 -27 -136 -79 -161 -292 -278 -561 -308 -260 -29 -537 47
-689 188 -163 151 -163 340 1 488 158 143 437 218 698 186z"/>
<path d="M2653 5673 c3 -32 16 -171 28 -309 l22 -250 139 -28 139 -27 137 27
c75 15 138 28 139 29 4 2 53 541 53 580 l0 35 -331 0 -332 0 6 -57z m297 -274
l0 -211 -22 5 c-13 3 -44 9 -70 12 -37 6 -48 12 -48 25 0 10 -3 32 -6 49 -6
28 -4 31 20 31 22 0 26 -4 26 -29 0 -23 5 -30 25 -33 l25 -5 0 183 0 184 25 0
25 0 0 -211z m240 186 c0 -24 -2 -25 -65 -25 l-65 0 0 -75 0 -75 56 0 55 0 -6
-82 c-10 -129 -7 -124 -72 -137 -76 -15 -83 -14 -83 8 0 20 8 24 66 36 28 5
32 10 38 52 11 85 12 83 -49 83 l-55 0 0 120 0 120 90 0 c89 0 90 0 90 -25z"/>
<path d="M1054 4202 c-38 -24 -58 -71 -50 -116 7 -35 49 -86 72 -86 11 0 14
-24 14 -109 0 -98 -2 -110 -18 -115 -33 -11 -63 -53 -68 -93 -11 -93 81 -152
175 -114 38 16 61 56 61 107 0 30 -7 44 -40 75 -26 25 -40 47 -40 63 l0 25 43
-19 c23 -11 61 -20 84 -20 36 0 43 -4 61 -34 35 -59 117 -68 167 -19 46 47 45
125 -3 176 -47 49 -139 33 -171 -30 -9 -18 -20 -23 -49 -23 -49 0 -81 18 -109
59 -29 42 -29 68 -2 76 11 4 29 21 40 38 48 79 5 166 -87 174 -37 3 -57 -1
-80 -15z"/>
<path d="M6800 5650 l0 -460 400 0 400 0 0 -1010 0 -1010 463 0 462 0 -4 1010
-3 1010 401 0 401 0 0 460 0 460 -1260 0 -1260 0 0 -460z"/>
<path d="M9587 4647 c-334 -804 -607 -1465 -607 -1469 0 -5 208 -8 463 -8
l463 0 63 155 63 155 631 -2 631 -3 62 -150 62 -150 467 -3 c373 -2 466 0 462
10 -14 35 -1182 2840 -1199 2881 l-20 47 -467 0 -466 0 -608 -1463z m1238 -46
c85 -206 154 -376 152 -378 -2 -2 -146 -2 -319 -1 l-314 3 147 355 c174 416
169 404 174 398 2 -2 74 -172 160 -377z"/>
<path d="M12895 6095 c-279 -62 -508 -257 -661 -564 -82 -164 -149 -402 -174
-616 -15 -133 -12 -442 5 -564 53 -369 202 -696 415 -912 137 -138 297 -229
454 -258 40 -7 297 -11 758 -11 l698 0 0 460 0 459 -522 3 c-585 3 -557 0
-641 78 -50 45 -106 149 -132 245 -25 90 -31 330 -11 425 32 150 112 277 204
322 l47 23 528 3 527 3 0 459 0 460 -717 -1 c-557 0 -731 -4 -778 -14z"/>
<path d="M14600 4640 l0 -1470 465 0 465 0 0 505 0 505 33 0 c31 -1 38 -10
352 -505 l320 -504 598 -1 c328 0 597 2 597 4 0 2 -221 346 -492 763 -270 417
-491 763 -491 769 0 5 232 322 516 702 285 381 517 695 517 697 0 3 -271 5
-602 5 l-603 0 -335 -500 -335 -500 -37 0 -38 0 0 500 0 500 -465 0 -465 0 0
-1470z"/>
<path d="M357 3075 c-47 -16 -81 -46 -101 -90 -14 -29 -16 -109 -16 -616 l0
-582 25 -43 c16 -28 39 -49 68 -63 l43 -21 1922 0 1922 0 0 -50 0 -50 -1927 0
-1928 0 -40 -23 c-22 -13 -49 -40 -62 -62 l-23 -40 0 -583 c0 -561 1 -584 20
-622 11 -21 34 -49 52 -62 l33 -23 2403 -3 2402 -2 0 535 0 535 508 0 c394 0
521 3 572 14 252 54 467 229 590 481 84 172 114 333 99 539 -31 414 -319 768
-678 832 -114 20 -5828 20 -5884 -1z m1105 -298 c192 -50 347 -158 409 -283
29 -58 31 -70 27 -138 -7 -113 -64 -199 -186 -280 -285 -189 -739 -188 -1024
1 -123 81 -178 165 -186 281 -4 66 -2 78 27 136 72 147 249 255 495 302 110
21 318 12 438 -19z m4405 -418 c123 -46 166 -227 84 -349 -55 -83 -40 -80
-443 -80 l-358 0 0 220 0 220 344 0 c219 0 355 -4 373 -11z m-4547 -1079 c187
-23 352 -90 457 -184 81 -74 115 -139 121 -233 4 -67 2 -79 -27 -137 -79 -161
-292 -278 -561 -308 -333 -37 -676 97 -780 304 -85 170 8 356 234 467 167 83
362 114 556 91z"/>
<path d="M826 2704 c-9 -8 -18 -25 -21 -37 -3 -12 -5 -147 -3 -300 3 -262 4
-279 22 -293 16 -11 84 -14 375 -14 196 0 361 4 367 8 30 20 34 55 34 322 0
267 -4 302 -34 322 -6 4 -172 8 -368 8 -311 0 -359 -2 -372 -16z m437 -141
c-3 -16 -25 -102 -48 -193 -36 -144 -44 -165 -62 -168 -20 -3 -20 2 19 155 61
247 57 233 79 233 16 0 18 -4 12 -27z"/>
<path d="M856 1164 c-10 -9 -16 -33 -16 -60 l0 -44 360 0 360 0 0 44 c0 78 12
76 -360 76 -285 0 -331 -2 -344 -16z"/>
<path d="M840 772 c0 -164 3 -231 12 -240 17 -17 679 -17 696 0 9 9 12 76 12
240 l0 228 -360 0 -360 0 0 -228z m417 106 c22 -24 31 -152 14 -208 -20 -67
-95 -79 -126 -20 -21 41 -21 187 1 218 30 43 77 47 111 10z m-287 -43 l0 -65
30 0 30 0 0 65 c0 51 3 65 15 65 13 0 15 -22 15 -140 0 -118 -2 -140 -15 -140
-12 0 -15 13 -15 55 l0 55 -45 0 -45 0 0 85 c0 69 3 85 15 85 12 0 15 -14 15
-65z m400 0 l0 -65 30 0 30 0 0 65 c0 51 3 65 15 65 13 0 15 -22 15 -140 0
-118 -2 -140 -15 -140 -12 0 -15 13 -15 55 l0 55 -45 0 -45 0 0 85 c0 69 3 85
15 85 12 0 15 -14 15 -65z"/>
<path d="M1177 864 c-4 -4 -7 -54 -7 -110 0 -95 2 -103 20 -109 42 -13 51 10
48 119 -3 100 -3 101 -28 104 -14 2 -29 0 -33 -4z"/>
<path d="M7060 1615 l0 -1475 460 0 460 0 0 470 0 470 223 0 222 0 280 -470
280 -470 517 0 517 0 -111 193 c-61 105 -198 345 -306 531 -177 309 -194 341
-177 350 67 39 186 140 236 200 71 86 159 257 195 381 37 128 45 366 16 505
-83 401 -355 677 -757 768 -61 13 -203 16 -1062 19 l-993 4 0 -1476z m1741
759 c142 -66 216 -222 175 -369 -32 -114 -121 -202 -227 -224 -30 -7 -194 -11
-409 -11 l-360 0 0 316 0 315 388 -3 c371 -3 389 -4 433 -24z"/>
<path d="M10080 1615 l0 -1475 1070 0 1070 0 0 465 0 465 -610 0 -610 0 0 90
0 90 575 0 575 0 0 355 0 355 -575 0 -575 0 0 100 0 100 610 0 610 0 0 465 0
465 -1070 0 -1070 0 0 -1475z"/>
<path d="M12430 1615 l0 -1475 465 0 465 0 0 535 0 534 538 3 537 3 87 31
c181 65 339 190 449 358 210 318 214 757 12 1086 -86 139 -244 281 -377 339
-133 58 -73 55 -1168 58 l-1008 4 0 -1476z m1677 729 c15 -11 41 -40 58 -63
25 -36 30 -54 33 -116 5 -87 -15 -139 -73 -195 l-36 -35 -365 -3 -364 -3 0
221 0 221 359 -3 c347 -3 361 -4 388 -24z"/>
</g>
</svg>
